<svg aria-hidden="true" style="position: absolute; width: 0; height: 0; overflow: hidden;" version="1.1" xmlns="http://www.w3.org/2000/svg" xmlns:xlink="http://www.w3.org/1999/xlink">
<defs>
<symbol id="icon-vector" viewBox="0 0 32 32">
<path d="M32 3.223l-3.223-3.223-12.777 12.777-12.777-12.777-3.223 3.223 12.777 12.777-12.777 12.777 3.223 3.223 12.777-12.777 12.777 12.777 3.223-3.223-12.777-12.777 12.777-12.777z"></path>
</symbol>
<symbol id="icon-antenna" viewBox="0 0 70 70">
 <path d="M67.316 48.339l-18.47-18.605 2.05-10.097a4.655 4.655 0 001.66.319h.014a4.723 4.723 0 10-4.394-3.14l-10.85 1.325L19.628.35a1.166 1.166 0 00-.824-.35 1.17 1.17 0 00-.817.34L14.68 3.63a1.167 1.167 0 000 1.65l1.78 1.805a32.686 32.686 0 005.511 38.638c.094.09.202.161.32.213a6.77 6.77 0 00-.114 1.197v13.534h-14A5.84 5.84 0 002.342 66.5v2.333c0 .645.523 1.167 1.167 1.167h53.667c.644 0 1.166-.522 1.166-1.167V66.5a5.84 5.84 0 00-5.833-5.833h-14v-5.998c2.193.46 4.428.694 6.669.7a32.483 32.483 0 0015.4-3.901l1.79 1.8c.216.221.513.347.823.35.306-.002.6-.124.817-.34l3.308-3.29a1.167 1.167 0 000-1.65zM50.925 13.635a2.333 2.333 0 111.645 3.987h-.008a2.333 2.333 0 01-1.633-3.987h-.004zM48.178 21.3l-1.309 6.444-2.571-2.587 3.88-3.857zm-1.325-1.973l-4.2 4.176-3.25-3.267 7.45-.909zM52.509 63a3.5 3.5 0 013.5 3.5v1.167H4.676V66.5a3.5 3.5 0 013.5-3.5h44.333zm-16.333-4.667v2.334H24.509v-2.334h11.667zM24.509 56v-8.867c0-2.83 2.617-5.133 5.833-5.133 3.217 0 5.834 2.303 5.834 5.133V56H24.509zm14-3.71v-5.157c0-4.117-3.663-7.466-8.167-7.466a8.312 8.312 0 00-7.177 3.907A30.34 30.34 0 0118.18 8.82l40.692 40.925a30.233 30.233 0 01-20.363 2.544zm24.695-1.496l-1.644-1.653L18.792 6.116l-1.65-1.655 1.65-1.645L36.15 20.272c.008 0 .013.015.021.021l28.688 28.856-1.655 1.645z" fill="#212121"></path>
    <path d="M30.353 44.333h-.01a3.5 3.5 0 10-.011 7h.01a3.5 3.5 0 00.01-7zm.816 4.327a1.167 1.167 0 11-.827-1.993 1.166 1.166 0 01.817 1.993h.01z" fill="#2196F3"></path>
</symbol>
<symbol id="icon-astronaut" viewBox="0 0 70 70">
 <path d="M69.943 9.896a1.168 1.168 0 00-.941-.793l-4.18-.608-1.87-3.787c-.391-.798-1.7-.798-2.091 0l-1.87 3.787-4.18.608a1.167 1.167 0 00-.648 1.99l3.026 2.948-.714 4.162c-.075.438.105.88.463 1.142.363.263.837.296 1.23.088l3.738-1.966 3.738 1.966a1.169 1.169 0 001.693-1.23l-.714-4.162 3.025-2.949a1.17 1.17 0 00.295-1.196zM64.556 12.8c-.275.267-.4.655-.335 1.033l.417 2.437-2.188-1.15a1.164 1.164 0 00-1.088 0l-2.188 1.15.417-2.437a1.168 1.168 0 00-.335-1.033l-1.772-1.726 2.448-.356c.38-.055.708-.294.878-.639l1.095-2.216 1.094 2.216c.17.345.498.584.879.639l2.447.355-1.77 1.727zm-7.389 32.092h-2.334v2.334h2.334v-2.334zm0 4.668h-2.334v2.332h2.334V49.56zm2.333-2.334h-2.333v2.333H59.5v-2.333zm-4.666 0H52.5v2.333h2.334v-2.333zM49 57.726h-2.333v2.333H49v-2.333zm0 4.667h-2.333v2.333H49v-2.333zm2.334-2.333H49v2.333h2.334v-2.334zm-4.667 0h-2.334v2.333h2.334v-2.334zM35 53.06h-2.334v2.333H35v-2.334zm0 4.666h-2.334v2.333H35v-2.333zm2.333-2.334H35v2.334h2.333v-2.334z" fill="#2196F3"></path>
    <path d="M32.667 55.392h-2.334v2.334h2.334v-2.334zm-19.834-42h-2.334v2.333h2.334v-2.333zm0 4.667h-2.334v2.333h2.334v-2.333zm2.333-2.334h-2.333v2.334h2.333v-2.334zm-4.666 0H8.166v2.334H10.5v-2.334z" fill="#2196F3"></path>
    <path d="M54.063 30.974a3.88 3.88 0 00-2.599-1.541 3.886 3.886 0 00-2.93.77l-2.74 2.097-.001.002-4.151 3.1-2.97-1.184c5.296-2.376 8.998-7.674 8.998-13.825 0-8.362-6.83-15.167-15.227-15.167S17.215 12.03 17.215 20.393c0 3.031.907 5.85 2.45 8.222l-6.046-.053h-.01c-.019 0-.034.01-.051.01a1.136 1.136 0 00-.34.069c-.028.01-.057.016-.084.029-.014.006-.028.007-.042.014L6.02 32.175c-.001 0-.003 0-.003.002l-4.141 1.991a.898.898 0 00-.138.077A3.895 3.895 0 00.43 39.268a3.884 3.884 0 002.31 1.944 3.891 3.891 0 003.016-.281l3.036-1.614 4.952-2.558 2.968-.017L4.808 48.588c0 .002-.002.002-.003.003l-2.929 2.916a3.607 3.607 0 00-1.072 2.577c0 .973.38 1.888 1.072 2.578a3.647 3.647 0 002.58 1.062c.936 0 1.869-.355 2.582-1.062l2.875-2.863 3.808-2.843 1.97 1.962-3.854 3.837-.003.002-2.928 2.917a3.607 3.607 0 00-1.073 2.576c0 .973.38 1.89 1.073 2.579a3.65 3.65 0 002.58 1.061c.935 0 1.87-.354 2.582-1.061l2.93-2.917 4.686-4.667.002-.003 2.21-2.188-.01-.008c.015-.014.035-.019.049-.034l11.3-12.377 7.593 1.08c.055.008.11.012.164.012.142 0 .278-.034.41-.084.039-.014.072-.033.109-.051.042-.021.086-.033.126-.06l7.029-4.666c.026-.018.04-.046.064-.065.028-.022.063-.031.089-.056l2.78-2.605a3.891 3.891 0 00.465-5.166zM4.66 38.872c-.379.203-.81.244-1.221.113a1.564 1.564 0 01-.465-2.755l2.874-1.383.692 2.022.29.85-2.17 1.153zm7.65-3.998l-3.387 1.75-.558-1.633-.402-1.174 4.434-2.189-.087 3.246zm33.03-14.482c0 2.009-.48 3.904-1.31 5.599l-9.147-4.155a4.07 4.07 0 00-1.724-3.035L36.36 8.168c5.202 1.654 8.98 6.506 8.98 12.223zm-25.788 0c0-7.076 5.784-12.834 12.894-12.834.553 0 1.094.047 1.63.115L30.943 18.07c-.042 0-.081-.013-.125-.013a4.094 4.094 0 00-4.096 4.084 4.094 4.094 0 004.096 4.083c1.52 0 2.832-.838 3.54-2.066l8.45 3.839c-2.352 3.164-6.114 5.227-10.362 5.227-7.11 0-12.894-5.757-12.894-12.833zm13.03 1.75a1.76 1.76 0 01-1.764 1.75 1.759 1.759 0 01-1.762-1.75c0-.965.79-1.75 1.762-1.75s1.763.785 1.763 1.75zM5.391 55.007a1.331 1.331 0 01-1.87.002 1.299 1.299 0 010-1.847l2.105-2.097L7.49 52.92l-2.097 2.089zm7.03 8.167a1.33 1.33 0 01-1.87.002 1.3 1.3 0 010-1.847l2.106-2.098.88.876.983.978-2.099 2.09zm7.616-7.588l-.003.003-3.86 3.85-.882-.877-.982-.977 3.857-3.84v-.001l.004-.002c.087-.088.142-.193.196-.297.015-.03.044-.056.057-.087.036-.09.042-.187.056-.281.007-.054.03-.104.03-.159 0-.078-.028-.154-.044-.231-.014-.07-.014-.141-.041-.209a1.167 1.167 0 00-.2-.3c-.022-.027-.03-.06-.054-.084h-.002s0-.003-.002-.004l-3.515-3.5c-.037-.038-.085-.053-.127-.084a1.112 1.112 0 00-.19-.127 1.095 1.095 0 00-.205-.07 1.125 1.125 0 00-.225-.044 1.132 1.132 0 00-.209.01c-.078.01-.151.02-.227.045a1.08 1.08 0 00-.207.098c-.043.024-.092.033-.133.063L9.25 51.377l-1.97-1.963 5.247-5.22 9.54 9.382-2.03 2.01zm14.916-15.349c-.033-.004-.065.008-.099.006a1.153 1.153 0 00-.252.015 1.075 1.075 0 00-.404.15 1.13 1.13 0 00-.181.134c-.028.024-.062.036-.088.064L23.653 51.862l-9.468-9.311 6.197-6.165a1.168 1.168 0 00-.83-1.993l-4.854.028.061-3.516 6.79.058a15.2 15.2 0 0010.897 4.596c.957 0 1.89-.1 2.799-.268.087.07.174.14.283.185l5.272 2.1.333 1.66.39 1.936-6.569-.935zm8.84.39l-.684-3.408 3.164-2.363.828 1.1 1.242 1.65-4.55 3.02zm8.212-6.193l-1.833 1.718-2.037-2.705 1.818-1.394c.34-.261.768-.367 1.188-.313.422.06.796.28 1.05.622a1.562 1.562 0 01-.187 2.072z" fill="#212121"></path>
    <path d="M29.755 40.565l-4.688-4.667a1.166 1.166 0 00-1.646 0l-4.687 4.667a1.172 1.172 0 000 1.654l4.687 4.667a1.165 1.165 0 001.646 0l4.688-4.667a1.167 1.167 0 000-1.654zm-5.51 3.848l-3.034-3.02 3.033-3.021 3.035 3.02-3.035 3.02zm13.302-33.321l-.564 2.266c.155.039 3.801.988 3.801 4.7h2.334c0-4.412-3.644-6.486-5.571-6.966zm5.571 9.3h-2.334v2.333h2.334v-2.333z" fill="#212121"></path>
</symbol>
<symbol id="icon-brand" viewBox="0 0 40 32">
<path d="M3.056 26.742c0.157 0.194 0.24 0.438 0.236 0.688 0.001 0.016 0.001 0.035 0.001 0.053 0 0.324-0.141 0.615-0.365 0.815l-0.001 0.001c-0.304 0.231-0.681 0.343-1.061 0.317h-1.865v-4.361h1.827c0.031-0.002 0.067-0.003 0.103-0.003 0.341 0 0.657 0.11 0.914 0.297l-0.004-0.003c0.218 0.184 0.355 0.457 0.355 0.763 0 0.018-0.001 0.037-0.002 0.055l0-0.003c0.011 0.24-0.065 0.477-0.212 0.667-0.142 0.173-0.338 0.293-0.556 0.34 0.247 0.046 0.471 0.177 0.63 0.373zM0.868 26.084h0.78c0.178 0.014 0.354-0.038 0.497-0.145 0.104-0.095 0.169-0.232 0.169-0.383 0-0.015-0.001-0.030-0.002-0.045l0 0.002c0.001-0.011 0.001-0.024 0.001-0.037 0-0.153-0.064-0.291-0.167-0.389l-0-0c-0.124-0.093-0.281-0.15-0.45-0.15-0.021 0-0.043 0.001-0.064 0.003l0.003-0h-0.767v1.144zM2.222 27.756c0.114-0.1 0.186-0.246 0.186-0.408 0-0.012-0-0.024-0.001-0.036l0 0.002c0.001-0.010 0.001-0.021 0.001-0.032 0-0.166-0.073-0.314-0.189-0.416l-0.001-0.001c-0.132-0.099-0.299-0.159-0.48-0.159-0.018 0-0.036 0.001-0.054 0.002l0.002-0h-0.818v1.199h0.829c0.187 0.011 0.372-0.042 0.524-0.151zM6.79 28.617l-1.016-1.704h-0.382v1.704h-0.874v-4.361h1.654c0.034-0.003 0.074-0.004 0.114-0.004 0.396 0 0.76 0.142 1.042 0.377l-0.003-0.002c0.245 0.251 0.397 0.595 0.397 0.974 0 0.313-0.103 0.601-0.277 0.834l0.003-0.004c-0.204 0.235-0.483 0.392-0.789 0.443l1.083 1.743h-0.95zM5.392 26.318h0.715c0.497 0 0.745-0.22 0.745-0.66 0.001-0.011 0.001-0.024 0.001-0.037 0-0.176-0.070-0.336-0.184-0.453l0 0c-0.133-0.112-0.306-0.18-0.496-0.18-0.024 0-0.047 0.001-0.070 0.003l0.003-0h-0.724l0.009 1.328zM11.568 27.739h-1.742l-0.308 0.878h-0.916l1.6-4.313h0.991l1.593 4.312h-0.916l-0.301-0.878zM11.335 27.079l-0.637-1.84-0.637 1.84h1.273zM17.55 28.617h-0.869l-1.946-2.965v2.965h-0.865v-4.361h0.865l1.946 2.982v-2.982h0.868v4.361zM22.502 27.573c-0.182 0.33-0.45 0.593-0.775 0.764l-0.010 0.005c-0.378 0.191-0.797 0.286-1.22 0.274h-1.546v-4.361h1.546c0.020-0.001 0.043-0.001 0.067-0.001 0.42 0 0.817 0.1 1.168 0.277l-0.015-0.007c0.332 0.168 0.606 0.433 0.786 0.761 0.171 0.333 0.272 0.727 0.272 1.144s-0.1 0.811-0.278 1.158l0.007-0.014zM21.509 27.469c0.239-0.278 0.384-0.642 0.384-1.041s-0.145-0.763-0.386-1.043l0.002 0.002c-0.264-0.232-0.612-0.374-0.993-0.374-0.033 0-0.066 0.001-0.098 0.003l0.004-0h-0.603v2.823h0.603c0.028 0.002 0.061 0.003 0.094 0.003 0.381 0 0.729-0.141 0.994-0.375l-0.002 0.001zM12.111 0s11.201 4.246 10.964 10.39v10.392s-11.193-4.248-10.959-10.392l-0.005-10.39zM33.053 18.349c2.005-1.402 4.428-2.346 7.049-2.628l0.068-0.006v-3.253c-2.995 1.181-5.437 3.227-7.081 5.827l-0.035 0.060z"></path>
<path d="M31.782 19.329c1.749-3.487 4.693-6.158 8.283-7.513l0.105-0.035v-9.373s-15.952 6.048-15.615 14.797v14.796s0.711-0.27 1.829-0.778c0-0.473 0-0.95 0.050-1.43 0.35-4.206 2.343-7.888 5.327-10.447l0.021-0.017z"></path>
<path d="M30.266 24.825c0.084-1.026 0.27-2.041 0.558-3.030-2.038 2.401-3.303 5.514-3.378 8.921l-0 0.016c1.299-0.625 2.304-1.166 3.286-1.741l-0.218 0.118c-0.191-0.908-0.3-1.952-0.3-3.021 0-0.445 0.019-0.885 0.056-1.32l-0.004 0.057zM30.9 24.878c-0.031 0.359-0.049 0.777-0.049 1.199 0 0.948 0.090 1.874 0.261 2.772l-0.015-0.092c4.358-2.619 9.255-6.664 9.067-11.553v-0.426c-3.246 0.375-6.107 1.788-8.297 3.894l0.005-0.005c-0.501 1.234-0.847 2.664-0.968 4.158l-0.003 0.052z"></path>
</symbol>
<symbol id="icon-clock" viewBox="0 0 70 70">
    <path d="M68.461 33.471C68.458 14.982 53.466-.004 34.975 0 16.485.004 1.5 14.996 1.504 33.486A33.479 33.479 0 0024.799 65.37c.133.042.27.063.41.063.263 0 .521-.071.748-.205.296-.175.516-.453.62-.78l8.454-26.797a4.184 4.184 0 10-1.837-7.95L22.025 18.53a1.395 1.395 0 00-1.972 1.973l11.163 11.176a4.104 4.104 0 001.173 5.051l-8.055 25.535C8.414 56.4.262 38.74 6.126 22.82 11.991 6.9 29.65-1.252 45.571 4.613c15.92 5.864 24.072 23.524 18.207 39.444A30.72 30.72 0 0147.455 61.5l-.87-4.1a1.394 1.394 0 00-2.294-.752l-8.393 7.494a1.394 1.394 0 00.505 2.372l10.716 3.42a1.394 1.394 0 001.791-1.619l-.855-4.022a33.37 33.37 0 0020.406-30.82zm-33.478-1.394a1.395 1.395 0 110 2.79 1.395 1.395 0 010-2.79zm4.594 32.515l4.778-4.262 1.319 6.213-6.097-1.951z" fill="#212121"></path>
    <path d="M33.588 6.967v2.79a1.395 1.395 0 102.79 0v-2.79a1.395 1.395 0 00-2.79 0zM8.479 32.077a1.395 1.395 0 000 2.79h2.79a1.395 1.395 0 100-2.79h-2.79zm53.007 2.79a1.395 1.395 0 100-2.79h-2.79a1.395 1.395 0 000 2.79h2.79z" fill="#2196F3"></path>
</symbol>
<symbol id="icon-company" viewBox="0 0 31 32">
<path d="M4.722 31.103c0.023 0.001 0.044 0.010 0.060 0.025v0l0.153 0.161c-0.119 0.13-0.266 0.234-0.431 0.304-0.194 0.077-0.401 0.115-0.61 0.109-0.009 0-0.020 0-0.031 0-0.196 0-0.382-0.038-0.554-0.106l0.010 0.004c-0.332-0.134-0.588-0.397-0.709-0.725l-0.003-0.009c-0.061-0.164-0.097-0.353-0.097-0.55 0-0.007 0-0.015 0-0.022v0.001c-0-0.007-0-0.015-0-0.023 0-0.198 0.038-0.387 0.108-0.56l-0.004 0.010c0.067-0.165 0.168-0.316 0.298-0.444 0.13-0.127 0.286-0.225 0.459-0.29 0.188-0.070 0.389-0.104 0.591-0.102 0.188-0.004 0.375 0.027 0.55 0.093 0.151 0.063 0.29 0.149 0.412 0.257l-0.129 0.171c-0.009 0.012-0.020 0.023-0.032 0.031l-0 0c-0.013 0.009-0.028 0.014-0.045 0.014-0.002 0-0.004-0-0.006-0l0 0c-0.021-0.001-0.040-0.008-0.056-0.019l0 0-0.068-0.045-0.096-0.059c-0.087-0.046-0.189-0.082-0.296-0.101l-0.006-0.001c-0.063-0.011-0.135-0.018-0.209-0.018-0.007 0-0.013 0-0.020 0h0.001c-0.005-0-0.010-0-0.016-0-0.147 0-0.288 0.028-0.417 0.079l0.008-0.003c-0.13 0.051-0.241 0.124-0.333 0.216l0-0c-0.095 0.099-0.169 0.216-0.216 0.342-0.054 0.145-0.081 0.298-0.079 0.452-0.002 0.156 0.025 0.313 0.079 0.46 0.046 0.126 0.119 0.242 0.212 0.341 0.088 0.093 0.196 0.165 0.318 0.212 0.125 0.049 0.259 0.074 0.394 0.073 0.078 0.001 0.156-0.004 0.234-0.015 0.127-0.015 0.247-0.057 0.354-0.122 0.054-0.034 0.104-0.071 0.151-0.113 0.019-0.017 0.044-0.029 0.072-0.030h0zM9.144 30.296c0.002 0.194-0.033 0.387-0.103 0.568-0.067 0.172-0.165 0.319-0.288 0.44l-0 0c-0.126 0.123-0.276 0.221-0.444 0.286l-0.009 0.003c-0.173 0.065-0.373 0.102-0.582 0.102s-0.409-0.037-0.594-0.106l0.012 0.004c-0.175-0.069-0.325-0.167-0.45-0.29l0 0c-0.123-0.123-0.222-0.271-0.288-0.436l-0.003-0.009c-0.065-0.169-0.103-0.364-0.103-0.568s0.038-0.399 0.107-0.579l-0.004 0.011c0.065-0.166 0.164-0.318 0.29-0.447 0.126-0.119 0.276-0.214 0.441-0.276l0.009-0.003c0.173-0.066 0.373-0.104 0.582-0.104s0.409 0.038 0.594 0.108l-0.012-0.004c0.17 0.066 0.324 0.164 0.452 0.29 0.127 0.127 0.224 0.275 0.289 0.439 0.071 0.182 0.106 0.376 0.104 0.571zM8.742 30.296c0-0.007 0-0.016 0-0.024 0-0.155-0.027-0.303-0.076-0.441l0.003 0.009c-0.087-0.256-0.278-0.457-0.522-0.554l-0.006-0.002c-0.126-0.047-0.271-0.075-0.423-0.075s-0.297 0.027-0.432 0.078l0.009-0.003c-0.251 0.099-0.443 0.299-0.528 0.55l-0.002 0.006c-0.097 0.298-0.097 0.615 0 0.912 0.087 0.256 0.279 0.457 0.524 0.552l0.006 0.002c0.273 0.097 0.573 0.097 0.846 0 0.124-0.048 0.234-0.121 0.324-0.214 0.092-0.1 0.162-0.216 0.205-0.341 0.052-0.147 0.076-0.301 0.073-0.456zM12.16 30.774l0.041 0.102c0.015-0.036 0.028-0.069 0.044-0.102 0.017-0.040 0.034-0.073 0.052-0.105l-0.002 0.005 0.978-1.694c0.019-0.030 0.037-0.048 0.056-0.053 0.020-0.006 0.043-0.009 0.066-0.009 0.005 0 0.010 0 0.015 0l-0.001-0h0.289v2.755h-0.342v-2.11c-0.001-0.014-0.001-0.031-0.001-0.048s0.001-0.033 0.001-0.050l-0 0.002-0.984 1.718c-0.013 0.026-0.033 0.048-0.057 0.062l-0.001 0c-0.023 0.014-0.052 0.022-0.082 0.022-0.001 0-0.002 0-0.002-0h-0.055c-0.030 0.001-0.060-0.007-0.084-0.022s-0.044-0.036-0.057-0.062l-0-0.001-1.013-1.73v2.212h-0.331v-2.75h0.289c0.004-0 0.009-0 0.014-0 0.024 0 0.046 0.003 0.068 0.010l-0.002-0c0.024 0.011 0.042 0.029 0.053 0.052l0 0.001 0.999 1.696c0.018 0.028 0.035 0.060 0.048 0.094l0.001 0.004zM15.841 30.638v1.031h-0.383v-2.75h0.854c0.010-0 0.021-0 0.033-0 0.158 0 0.311 0.022 0.455 0.063l-0.012-0.003c0.124 0.034 0.239 0.092 0.337 0.171 0.085 0.074 0.15 0.167 0.191 0.27 0.045 0.112 0.067 0.232 0.066 0.352 0.002 0.121-0.022 0.24-0.071 0.352-0.049 0.109-0.119 0.201-0.205 0.274l-0.001 0.001c-0.095 0.080-0.209 0.143-0.333 0.181l-0.007 0.002c-0.149 0.045-0.305 0.067-0.461 0.064l-0.463-0.007zM15.841 30.342h0.464c0.1 0.002 0.201-0.013 0.296-0.042 0.083-0.027 0.154-0.068 0.215-0.12l-0.001 0.001c0.056-0.049 0.1-0.11 0.129-0.178l0.001-0.003c0.029-0.066 0.046-0.144 0.046-0.225 0-0.003-0-0.005-0-0.008v0c0-0.008 0.001-0.018 0.001-0.028 0-0.071-0.015-0.138-0.041-0.199l0.001 0.003c-0.032-0.074-0.077-0.137-0.133-0.188l-0-0c-0.126-0.094-0.285-0.15-0.457-0.15-0.020 0-0.040 0.001-0.060 0.002l0.003-0h-0.464v1.134zM20.987 31.673h-0.302c-0.002 0-0.004 0-0.006 0-0.030 0-0.057-0.010-0.079-0.026l0 0c-0.021-0.017-0.038-0.038-0.049-0.063l-0-0.001-0.26-0.665h-1.307l-0.27 0.665c-0.011 0.025-0.027 0.046-0.047 0.061l-0 0c-0.022 0.017-0.051 0.028-0.082 0.028-0.002 0-0.003-0-0.005-0h-0.302l1.148-2.756h0.398l1.164 2.756zM19.092 30.65h1.079l-0.455-1.122c-0.030-0.071-0.060-0.157-0.083-0.245l-0.003-0.013-0.044 0.144c-0.015 0.049-0.029 0.088-0.045 0.126l0.003-0.009-0.452 1.119zM22.64 28.93c0.023 0.013 0.043 0.030 0.058 0.050l1.674 2.076v-2.139h0.342v2.756h-0.191c-0.001 0-0.003 0-0.005 0-0.027 0-0.052-0.006-0.074-0.017l0.001 0c-0.024-0.014-0.044-0.031-0.061-0.051l-0-0-1.674-2.075c0.002 0.031 0.002 0.063 0 0.095v2.049h-0.342v-2.756h0.203c0.024 0 0.047 0.004 0.068 0.013zM27.537 30.577v1.094h-0.383v-1.094l-1.058-1.66h0.342c0.002-0 0.005-0 0.008-0 0.028 0 0.054 0.009 0.075 0.024l-0-0c0.021 0.018 0.038 0.038 0.052 0.061l0.001 0.001 0.662 1.070c0.026 0.045 0.049 0.088 0.068 0.128s0.034 0.078 0.048 0.116l0.050-0.118c0.021-0.049 0.043-0.090 0.068-0.13l-0.002 0.004 0.653-1.078c0.014-0.022 0.031-0.042 0.050-0.059l0-0c0.020-0.017 0.047-0.027 0.076-0.027 0.002 0 0.004 0 0.006 0h0.346l-1.060 1.667zM11.971 24.293c0.167 0.020 0.335 0.037 0.506 0.051 2.582-1.101 4.767-2.902 6.281-5.18s2.29-4.93 2.231-7.625l-2.846-2.712c0.189 0.894 0.297 1.921 0.297 2.974 0 2.015-0.396 3.937-1.115 5.694l0.036-0.1c-1.090 2.731-2.957 5.12-5.39 6.899z"></path>
<path d="M10.954 24.167l0.077 0.015c2.6-1.773 4.583-4.247 5.692-7.104 0.627-1.564 0.991-3.378 0.991-5.276 0-1.296-0.17-2.553-0.488-3.748l0.023 0.101-4.054-3.862c1.269 2.397 2.015 5.239 2.015 8.255 0 0.701-0.040 1.393-0.119 2.074l0.008-0.083c-0.397 3.519-1.834 6.857-4.144 9.628zM24.704 14.724c-0.688 2.962-2.361 5.632-4.77 7.616-0.665 0.553-1.406 1.066-2.191 1.51l-0.075 0.039c2.039-0.578 3.804-1.556 5.285-2.851l-0.016 0.013c1.465-1.281 2.625-2.875 3.381-4.679l0.031-0.084-1.645-1.565z"></path>
<path d="M24.060 14.288l-2.341-2.23c-0.053 2.681-0.865 5.162-2.23 7.249l0.032-0.053c-1.394 2.169-3.373 3.943-5.729 5.137h0.012c0.525 0 1.049-0.030 1.572-0.089 2.251-0.884 4.15-2.237 5.649-3.95l0.014-0.017c1.454-1.66 2.512-3.704 3.005-5.958l0.016-0.089zM11.294 2.664l-2.793-2.664c-2.497 0.919-4.644 2.535-6.16 4.636s-2.333 4.589-2.34 7.139c0.010 2.818 1.005 5.552 2.829 7.77s4.372 3.793 7.242 4.476c2.562-2.973 4.061-6.647 4.281-10.488s-0.851-7.648-3.059-10.87zM30.512 13.878c-0.010-3.343-1.409-6.547-3.89-8.91s-5.843-3.696-9.352-3.706c-1.622-0.002-3.23 0.284-4.741 0.841l17.099 16.29c0.559-1.335 0.884-2.886 0.884-4.513 0-0 0-0.001 0-0.001v0z"></path>
</symbol>
<symbol id="icon-companyline" viewBox="0 0 25 32">
<path d="M10.447 1.806h0.084c0.156 0 0.324 0.015 0.49 0.030 0.734 0.052 1.463 0.162 2.18 0.329v-1.762c-0.652-0.172-1.42-0.299-2.207-0.357l-0.042-0.002c-0.254-0.020-0.57-0.035-0.889-0.043l-0.021-0h-0.263c-1.523 0.006-3.040 0.201-4.514 0.582-1.68 0.418-3.293 1.075-4.79 1.948v17.475c1.312-0.729 2.832-1.339 4.431-1.75l0.135-0.029c1.123-0.3 2.433-0.51 3.78-0.586l0.052-0.002h0.052c0.217-0.011 0.433-0.017 0.655-0.018v-1.791c-1.78 0.024-3.493 0.264-5.129 0.695l0.147-0.033c-0.603 0.157-1.185 0.326-1.731 0.513l-0.623 0.212v-13.626l0.266-0.128c1.89-0.918 4.096-1.513 6.425-1.649l0.047-0.002c0.008-0.001 0.018-0.001 0.028-0.001s0.019 0 0.029 0.001l-0.001-0c0.248-0.012 0.497-0.018 0.742-0.018h0.28c0.129 0.003 0.258 0.006 0.388 0.014z"></path>
<path d="M14.837 3.651c-0.005 0-0.010 0-0.016 0-0.915 0-1.811-0.077-2.684-0.225l0.094 0.013c-0.277-0.047-0.55-0.103-0.814-0.164v17.275c1.12 0.277 2.271 0.412 3.425 0.404 1.607-0.007 3.162-0.218 4.644-0.61l-0.128 0.029c1.817-0.461 3.412-1.129 4.877-1.995l-0.085 0.047v-17.163c-1.311 0.728-2.83 1.338-4.429 1.751l-0.136 0.030c-1.551 0.399-3.146 0.603-4.746 0.609zM21.745 3.95l0.623-0.209v13.63l-0.266 0.129c-0.903 0.442-1.962 0.834-3.065 1.118l-0.119 0.026c-1.331 0.345-2.7 0.521-4.074 0.527-0.411 0-0.818-0.017-1.214-0.052l-0.426-0.038v-14.017l0.497 0.033c0.361 0.023 0.735 0.034 1.141 0.034 1.745-0.006 3.482-0.229 5.173-0.663 0.581-0.154 1.158-0.326 1.731-0.518zM1.684 25.977c-0.167-0.173-0.401-0.281-0.661-0.281-0.011 0-0.023 0-0.034 0.001l0.002-0c-0.004-0-0.009-0-0.014-0-0.139 0-0.272 0.028-0.393 0.078l0.007-0.003c-0.237 0.095-0.42 0.28-0.51 0.512l-0.002 0.006c-0.049 0.123-0.073 0.254-0.071 0.386v2.335c-0.006 0.164 0.026 0.328 0.092 0.479 0.055 0.12 0.135 0.226 0.234 0.313 0.093 0.078 0.202 0.135 0.32 0.166 0.114 0.031 0.231 0.048 0.349 0.048 0.13 0.001 0.258-0.026 0.377-0.081 0.351-0.156 0.591-0.5 0.591-0.901v-0.261h-0.611v0.208c0 0.004 0 0.009 0 0.014 0 0.070-0.013 0.136-0.037 0.198l0.001-0.004c-0.021 0.052-0.051 0.095-0.089 0.132l-0 0c-0.070 0.054-0.159 0.088-0.255 0.089h-0c-0.011 0.001-0.023 0.002-0.036 0.002-0.103 0-0.194-0.050-0.25-0.127l-0.001-0.001c-0.051-0.082-0.082-0.182-0.082-0.289 0-0.008 0-0.016 0.001-0.024l-0 0.001v-2.177c-0.004-0.121 0.022-0.24 0.075-0.349 0.056-0.087 0.153-0.143 0.262-0.143 0.013 0 0.025 0.001 0.038 0.002l-0.001-0c0.003-0 0.007-0 0.012-0 0.107 0 0.201 0.052 0.26 0.131l0.001 0.001c0.063 0.082 0.101 0.187 0.101 0.3 0 0.005-0 0.009-0 0.014v-0.001 0.202h0.604v-0.238c0-0.003 0-0.007 0-0.011 0-0.143-0.027-0.28-0.077-0.405l0.003 0.007c-0.048-0.128-0.117-0.237-0.205-0.329l0 0zM5.31 25.951c-0.186-0.158-0.429-0.255-0.694-0.257h-0c-0.124 0-0.248 0.023-0.364 0.066-0.252 0.090-0.451 0.276-0.557 0.511l-0.002 0.006c-0.062 0.142-0.092 0.297-0.089 0.452v2.239c-0.004 0.158 0.026 0.314 0.089 0.458 0.055 0.121 0.135 0.228 0.236 0.313 0.094 0.086 0.203 0.154 0.322 0.197 0.117 0.043 0.24 0.065 0.364 0.066 0.267-0.001 0.51-0.1 0.695-0.264l-0.001 0.001c0.097-0.087 0.176-0.194 0.23-0.313 0.063-0.144 0.093-0.301 0.089-0.458v-2.239c0-0.006 0-0.013 0-0.020 0-0.156-0.033-0.305-0.092-0.439l0.003 0.007c-0.057-0.128-0.135-0.237-0.23-0.327l-0-0zM5.025 28.969c0.001 0.010 0.002 0.023 0.002 0.035 0 0.114-0.047 0.216-0.123 0.289l-0 0c-0.077 0.065-0.178 0.105-0.287 0.105s-0.21-0.040-0.288-0.105l0.001 0.001c-0.076-0.073-0.123-0.175-0.123-0.289 0-0.012 0.001-0.025 0.002-0.037l-0 0.002v-2.239c-0.001-0.010-0.001-0.022-0.001-0.034 0-0.113 0.047-0.216 0.123-0.289l0-0c0.077-0.065 0.178-0.105 0.287-0.105s0.21 0.040 0.288 0.105l-0.001-0.001c0.076 0.073 0.123 0.175 0.123 0.289 0 0.012-0.001 0.025-0.002 0.037l0-0.002v2.24zM10.072 29.969v-4.24h-0.586l-0.771 2.244h-0.010l-0.777-2.244h-0.58v4.239h0.606v-2.578h0.011l0.593 1.823h0.302l0.598-1.823h0.010v2.578h0.606zM13.513 26.027c-0.093-0.105-0.211-0.185-0.342-0.232-0.124-0.042-0.267-0.066-0.416-0.066-0.008 0-0.016 0-0.024 0l0.001-0h-0.9v4.24h0.604v-1.656h0.311c0.189 0.009 0.376-0.031 0.545-0.116 0.139-0.078 0.251-0.188 0.329-0.32l0.002-0.004c0.070-0.113 0.117-0.238 0.138-0.369 0.021-0.133 0.033-0.287 0.033-0.444 0-0.013-0-0.027-0-0.040l0 0.002c0.006-0.203-0.014-0.407-0.059-0.606-0.043-0.153-0.12-0.284-0.223-0.39l0 0zM13.201 27.319c-0.003 0.081-0.023 0.157-0.057 0.224l0.001-0.003c-0.035 0.065-0.089 0.116-0.154 0.147l-0.002 0.001c-0.075 0.034-0.162 0.054-0.254 0.054-0.011 0-0.022-0-0.033-0.001l0.002 0h-0.276v-1.441h0.311c0.009-0 0.019-0.001 0.029-0.001 0.088 0 0.172 0.020 0.247 0.055l-0.004-0.002c0.062 0.036 0.111 0.090 0.141 0.154l0.001 0.002c0.033 0.074 0.051 0.155 0.053 0.236v0.282c0 0.098 0.006 0.201 0 0.291h-0.006zM16.374 25.729h-0.495l-0.934 4.24h0.604l0.177-0.911h0.823l0.178 0.911h0.604l-0.958-4.24zM15.817 28.481l0.297-1.537h0.011l0.295 1.537h-0.604zM20.277 28.283h-0.011l-0.912-2.554h-0.581v4.24h0.604v-2.55h0.012l0.923 2.549h0.568v-4.239h-0.604v2.554zM23.968 25.729l-0.486 1.686h-0.012l-0.486-1.686h-0.639l0.83 2.448v1.791h0.604v-1.791l0.83-2.447h-0.64zM0 31.166h0.291v0.817h0.198v-0.817h0.289v-0.167h-0.778v0.168zM2.447 30.998l-0.382 0.985h0.21l0.081-0.224h0.392l0.084 0.224h0.215l-0.391-0.985h-0.21zM2.417 31.593l0.134-0.365 0.134 0.365h-0.268zM4.866 31.62h0.228v0.127c-0.063 0.051-0.145 0.082-0.234 0.083h-0c-0.004 0-0.009 0-0.014 0-0.079 0-0.149-0.037-0.195-0.094l-0-0c-0.046-0.065-0.073-0.147-0.073-0.234 0-0.008 0-0.016 0.001-0.023l-0 0.001c0-0.219 0.095-0.329 0.283-0.329 0.006-0.001 0.014-0.001 0.021-0.001 0.097 0 0.178 0.067 0.201 0.157l0 0.001 0.194-0.038c-0.042-0.192-0.18-0.289-0.417-0.289-0.004-0-0.008-0-0.013-0-0.127 0-0.244 0.048-0.331 0.127l0-0c-0.088 0.087-0.143 0.208-0.143 0.342 0 0.013 0 0.026 0.002 0.038l-0-0.002c-0 0.007-0 0.015-0 0.023 0 0.132 0.048 0.254 0.127 0.347l-0.001-0.001c0.087 0.090 0.209 0.146 0.343 0.146 0.011 0 0.021-0 0.032-0.001l-0.001 0c0.005 0 0.010 0 0.016 0 0.155 0 0.296-0.060 0.402-0.157l-0 0v-0.388h-0.426v0.166zM7.337 30.998h-0.199v0.985h0.689v-0.167h-0.49v-0.817zM9.426 30.998h-0.199v0.985h0.199v-0.985zM11.469 31.655l-0.404-0.657h-0.193v0.985h0.185v-0.643l0.396 0.643h0.198v-0.985h-0.182v0.658zM13.315 31.549h0.49v-0.167h-0.49v-0.215h0.527v-0.168h-0.727v0.985h0.747v-0.167h-0.548v-0.266zM17.792 31.386h-0.388v-0.388h-0.197v0.984h0.197v-0.431h0.388v0.431h0.198v-0.985h-0.198v0.388zM19.649 31.549h0.492v-0.167h-0.492v-0.215h0.529v-0.168h-0.726v0.985h0.746v-0.167h-0.548v-0.266zM22.168 31.55c0.171-0.027 0.258-0.118 0.258-0.274 0.001-0.008 0.002-0.018 0.002-0.028 0-0.079-0.038-0.148-0.098-0.191l-0.001-0c-0.073-0.037-0.159-0.059-0.25-0.059-0.014 0-0.027 0-0.040 0.001l0.002-0h-0.417v0.984h0.198v-0.412h0.039c0.005-0 0.010-0 0.016-0 0.039 0 0.076 0.008 0.109 0.023l-0.002-0.001c0.029 0.018 0.053 0.042 0.070 0.072l0.215 0.313h0.236l-0.12-0.192c-0.054-0.096-0.128-0.175-0.215-0.235l-0.002-0.002zM21.969 31.413h-0.146v-0.247h0.156c0.012-0.001 0.027-0.002 0.042-0.002 0.057 0 0.111 0.009 0.163 0.026l-0.004-0.001c0.026 0.024 0.043 0.058 0.043 0.096 0 0.042-0.020 0.080-0.052 0.104l-0 0c-0.049 0.016-0.106 0.025-0.164 0.025-0.013 0-0.026-0-0.039-0.001l0.002 0zM24.068 31.549h0.49v-0.167h-0.49v-0.215h0.529v-0.168h-0.729v0.985h0.747v-0.167h-0.548v-0.266z"></path>
</symbol>
<symbol id="icon-companytac" viewBox="0 0 62 32">
<path d="M31.123 14.854c-0.251-0.36-0.401-0.806-0.401-1.287 0-0.051 0.002-0.101 0.005-0.15l-0 0.007v-2.074c0-0.637 0.132-1.12 0.394-1.45s0.715-0.495 1.356-0.494c0.602 0 1.030 0.141 1.282 0.422 0.275 0.359 0.41 0.798 0.379 1.241v0.487h-1.077v-0.494c0-0.019 0.001-0.041 0.001-0.064 0-0.148-0.012-0.293-0.034-0.435l0.002 0.016c-0.017-0.115-0.073-0.214-0.153-0.287l-0-0c-0.095-0.071-0.215-0.113-0.345-0.113-0.016 0-0.032 0.001-0.048 0.002l0.002-0c-0.014-0.001-0.029-0.002-0.045-0.002-0.137 0-0.264 0.045-0.367 0.121l0.002-0.001c-0.090 0.081-0.154 0.19-0.178 0.313l-0.001 0.004c-0.031 0.169-0.045 0.341-0.042 0.513v2.518c-0.002 0.029-0.003 0.062-0.003 0.096 0 0.222 0.052 0.432 0.145 0.619l-0.004-0.008c0.055 0.075 0.128 0.134 0.212 0.171l0.003 0.001c0.063 0.027 0.136 0.044 0.213 0.044 0.023 0 0.045-0.001 0.067-0.004l-0.003 0c0.013 0.001 0.029 0.002 0.044 0.002 0.128 0 0.245-0.044 0.338-0.117l-0.001 0.001c0.084-0.079 0.142-0.184 0.16-0.303l0-0.003c0.026-0.167 0.037-0.336 0.034-0.504v-0.511h1.077v0.466c0.003 0.038 0.004 0.083 0.004 0.128 0 0.442-0.141 0.85-0.381 1.183l0.004-0.006c-0.247 0.308-0.669 0.462-1.288 0.462s-1.088-0.164-1.354-0.506zM35.608 14.876c-0.272-0.323-0.408-0.794-0.408-1.416v-2.183c0-0.616 0.136-1.082 0.408-1.399s0.726-0.474 1.364-0.473c0.633 0 1.085 0.158 1.358 0.473 0.271 0.317 0.41 0.783 0.41 1.399v2.183c0 0.616-0.139 1.089-0.415 1.414-0.277 0.325-0.727 0.487-1.354 0.487s-1.090-0.164-1.364-0.485zM37.473 14.352c0.097-0.202 0.142-0.424 0.129-0.646v-2.672c0.001-0.021 0.002-0.047 0.002-0.072 0-0.204-0.048-0.397-0.133-0.569l0.003 0.007c-0.056-0.076-0.13-0.136-0.216-0.173l-0.003-0.001c-0.062-0.027-0.135-0.042-0.211-0.042-0.026 0-0.051 0.002-0.076 0.005l0.003-0c-0.022-0.003-0.047-0.005-0.073-0.005-0.077 0-0.15 0.016-0.216 0.044l0.004-0.001c-0.090 0.038-0.164 0.098-0.219 0.172l-0.001 0.001c-0.098 0.197-0.143 0.415-0.129 0.633v2.685c-0.014 0.223 0.031 0.444 0.129 0.646 0.062 0.067 0.138 0.121 0.222 0.158l0.004 0.002c0.082 0.036 0.177 0.057 0.277 0.057s0.195-0.021 0.281-0.059l-0.005 0.002c0.089-0.039 0.164-0.093 0.226-0.16l0-0v-0.013zM40.035 9.468h1.16l0.872 4.028 0.892-4.028h1.128l0.113 5.813h-0.833l-0.089-4.040-0.861 4.040h-0.669l-0.892-4.054-0.083 4.054h-0.843l0.104-5.812zM45.5 9.468h1.806c1.040 0 1.56 0.55 1.56 1.651 0 1.054-0.547 1.58-1.643 1.579h-0.614v2.583h-1.115l0.007-5.812zM47.043 11.952c0.11 0.014 0.222 0.004 0.327-0.028 0.106-0.031 0.204-0.085 0.286-0.155 0.128-0.197 0.184-0.427 0.16-0.657 0.001-0.020 0.001-0.044 0.001-0.067 0-0.163-0.020-0.322-0.057-0.474l0.003 0.014c-0.017-0.062-0.045-0.115-0.083-0.161l0.001 0.001c-0.039-0.047-0.086-0.087-0.139-0.116l-0.002-0.001c-0.129-0.059-0.279-0.094-0.437-0.094-0.021 0-0.042 0.001-0.062 0.002l0.003-0h-0.433v1.736h0.433zM50.474 9.468h1.197l1.229 5.813h-1.039l-0.243-1.341h-1.068l-0.25 1.341h-1.055l1.229-5.812zM51.497 13.267l-0.417-2.44-0.417 2.44h0.835zM53.892 9.468h0.779l1.494 3.316v-3.316h0.925v5.812h-0.742l-1.503-3.462v3.462h-0.957l0.002-5.812zM59.258 13.064l-1.242-3.588h1.046l0.758 2.305 0.711-2.305h1.023l-1.226 3.588v2.216h-1.071v-2.216zM32.845 17.822v0.304h-0.91v2.362h-0.381v-2.362h-0.914v-0.304h2.205zM35.697 20.488h-0.294c-0.002 0-0.005 0-0.008 0-0.028 0-0.054-0.010-0.075-0.026l0 0c-0.022-0.015-0.038-0.036-0.048-0.060l-0-0.001-0.263-0.633h-1.262l-0.264 0.633c-0.008 0.028-0.022 0.052-0.040 0.072l0-0c-0.021 0.016-0.047 0.025-0.076 0.025-0.002 0-0.005-0-0.007-0h-0.294l1.115-2.666h0.387l1.128 2.655zM33.85 19.498h1.053l-0.446-1.085c-0.028-0.067-0.057-0.15-0.080-0.236l-0.003-0.014-0.042 0.141-0.040 0.111-0.442 1.083zM37.619 20.226c0.070 0.003 0.139 0.003 0.209 0 0.061-0.006 0.12-0.017 0.179-0.032 0.063-0.015 0.117-0.032 0.169-0.052l-0.009 0.003c0.049-0.019 0.099-0.042 0.15-0.065v-0.6h-0.446c-0.002 0-0.003 0-0.005 0-0.021 0-0.041-0.008-0.055-0.021l0 0c-0.014-0.011-0.022-0.027-0.022-0.046 0-0.001 0-0.002 0-0.003v0-0.205h0.865v1.022c-0.135 0.092-0.292 0.166-0.459 0.214l-0.012 0.003c-0.078 0.023-0.173 0.043-0.269 0.055l-0.009 0.001c-0.096 0.011-0.208 0.017-0.321 0.017-0.002 0-0.003 0-0.005 0h0c-0.004 0-0.008 0-0.013 0-0.197 0-0.386-0.037-0.56-0.103l0.011 0.004c-0.173-0.066-0.321-0.161-0.446-0.279l0.001 0.001c-0.12-0.117-0.218-0.258-0.285-0.414l-0.003-0.008c-0.065-0.159-0.103-0.343-0.103-0.535 0-0.006 0-0.012 0-0.018v0.001c-0-0.005-0-0.011-0-0.017 0-0.195 0.037-0.38 0.105-0.551l-0.004 0.010c0.064-0.158 0.161-0.301 0.287-0.422 0.127-0.12 0.279-0.214 0.446-0.277 0.191-0.068 0.394-0.102 0.598-0.099 0.104 0 0.207 0.007 0.31 0.023 0.090 0.014 0.179 0.036 0.266 0.067 0.078 0.028 0.153 0.063 0.223 0.106 0.069 0.042 0.134 0.088 0.195 0.139l-0.108 0.165c-0.009 0.015-0.021 0.027-0.036 0.036l-0 0c-0.015 0.009-0.032 0.014-0.051 0.014h-0c-0.026-0.001-0.050-0.008-0.070-0.021l0.001 0c-0.044-0.023-0.079-0.043-0.114-0.066l0.005 0.003c-0.042-0.026-0.092-0.050-0.143-0.070l-0.007-0.002c-0.057-0.023-0.126-0.043-0.197-0.058l-0.008-0.001c-0.081-0.015-0.173-0.023-0.268-0.023-0.005 0-0.011 0-0.016 0h0.001c-0.004-0-0.009-0-0.013-0-0.15 0-0.293 0.027-0.425 0.077l0.008-0.003c-0.125 0.047-0.237 0.119-0.328 0.211-0.093 0.096-0.163 0.209-0.207 0.332-0.047 0.132-0.075 0.285-0.075 0.444s0.027 0.312 0.078 0.454l-0.003-0.009c0.049 0.125 0.125 0.24 0.223 0.335 0.092 0.092 0.202 0.163 0.326 0.211 0.142 0.046 0.292 0.064 0.442 0.053zM41.172 20.184h1.217v0.304h-1.59v-2.666h0.381l-0.009 2.362zM43.656 20.487h-0.381v-2.664h0.381v2.666zM45.074 17.834c0.023 0.013 0.042 0.029 0.057 0.048l0 0 1.63 2.010c-0.001-0.014-0.002-0.031-0.002-0.048s0.001-0.033 0.002-0.050l-0 0.002v-1.986h0.332v2.676h-0.191c-0.004 0-0.009 0.001-0.013 0.001-0.025 0-0.049-0.006-0.071-0.016l0.001 0c-0.023-0.014-0.043-0.031-0.060-0.050l-0-0-1.628-2.007v2.072h-0.319v-2.665h0.198c0.022 0 0.043 0.004 0.063 0.013zM49.901 17.822v0.294h-1.351v0.88h1.095v0.282h-1.095v0.91h1.351v0.294h-1.743v-2.659h1.743zM9.95 1.359l16.929 4.55v15.946l-16.927-4.547v-15.949zM8.865 0v18.081l19.098 5.135v-18.080l-19.098-5.137z"></path>
<path d="M19.1 31.61l-19.1-5.139v-18.080l19.1 5.137v18.082z"></path>
<path d="M9.181 1.155l16.707 4.493-7.105 6.728-16.71-4.495 7.107-6.727zM8.865 0l-8.865 8.392 19.1 5.137 8.863-8.392-19.098-5.137zM20.175 30.593l7.788-7.374-7.788-2.096v9.47z"></path>
</symbol>
<symbol id="icon-convert" viewBox="0 0 43 32">
<path d="M38.667 0h-34.667c-2.205 0-4 1.795-4 4v24c0 2.205 1.795 4 4 4h34.667c2.205 0 4-1.795 4-4v-24c0-2.205-1.795-4-4-4zM38.667 2.667c0.181 0 0.355 0.037 0.512 0.104l-17.845 15.467-17.845-15.467c0.151-0.065 0.327-0.104 0.512-0.104h34.667zM38.667 29.333h-34.667c-0.736 0-1.333-0.597-1.333-1.333v0-22.413l17.792 15.421c0.233 0.203 0.539 0.327 0.875 0.327s0.642-0.124 0.876-0.328l-0.002 0.001 17.792-15.421v22.413c0 0.736-0.597 1.333-1.333 1.333v0z"></path>
</symbol>
<symbol id="icon-diagrama" viewBox="0 0 70 70">
 <path d="M32.65 32.735h2.332V43.23H32.65V32.735zm9.328 4.665h2.332v5.83h-2.332V37.4zm-18.657 3.498h2.332v2.332h-2.332v-2.332zm-6.996-1.167h2.332v3.499h-2.332v-3.5z" fill="#2196F3"></path>
      <path d="M3.498 61.886h55.97a3.498 3.498 0 003.499-3.498v-4.664a3.498 3.498 0 00-3.498-3.498h-1.166v-29.08l6.623-6.274a3.518 3.518 0 10-1.633-1.668l-4.99 4.73v-2.69a3.498 3.498 0 00-3.498-3.498H8.162a3.498 3.498 0 00-3.498 3.498v34.982H3.498A3.498 3.498 0 000 53.724v4.664a3.498 3.498 0 003.498 3.498zM66.465 10.58a1.166 1.166 0 110 2.332 1.166 1.166 0 010-2.332zM6.996 15.244c0-.644.522-1.166 1.166-1.166h46.643c.644 0 1.166.522 1.166 1.166v4.897l-2.332 2.216v-4.78c0-.645-.523-1.167-1.167-1.167H10.495c-.644 0-1.167.522-1.167 1.166v29.152c0 .644.523 1.166 1.167 1.166h41.977c.645 0 1.167-.522 1.167-1.166V25.565l2.332-2.21v26.87H6.996v-34.98zm10.495 15.159a3.498 3.498 0 102.422 6.012l4.053 2.034a1.166 1.166 0 001.392-.269l8.616-9.693 8.47 6.347c.455.34 1.089.304 1.501-.086l7.361-6.973v17.787H11.661v-26.82h39.645v5.82l-8.25 7.813-8.54-6.403a1.167 1.167 0 00-1.572.157l-8.734 9.828-3.265-1.633a3.3 3.3 0 00.044-.423 3.498 3.498 0 00-3.498-3.498zm1.166 3.498a1.166 1.166 0 11-2.332 0 1.166 1.166 0 012.332 0zm6.996 18.657h11.66v1.166c0 .644-.521 1.166-1.165 1.166h-9.329a1.166 1.166 0 01-1.166-1.166v-1.166zm-23.32 1.166c0-.644.521-1.166 1.165-1.166h19.823v1.166a3.498 3.498 0 003.498 3.498h9.329a3.498 3.498 0 003.498-3.498v-1.166h19.823c.644 0 1.166.522 1.166 1.166v4.664c0 .644-.522 1.166-1.166 1.166H3.499a1.166 1.166 0 01-1.167-1.166v-4.664z" fill="#212121"></path>
</symbol>
<symbol id="icon-f" viewBox="0 0 18 32">
<path d="M13.328 5.312h2.923v-5.088c-1.232-0.143-2.66-0.224-4.107-0.224-0.052 0-0.104 0-0.157 0l0.008-0c-4.213 0-7.099 2.65-7.099 7.52v4.48h-4.646v5.688h4.646v14.312h5.699v-14.31h4.461l0.709-5.69h-5.17v-3.92c0-1.643 0.443-2.768 2.734-2.768z"></path>
</symbol>
<symbol id="icon-foster" viewBox="0 0 60 32">
<path d="M9.229 9.548h-0.002c-1.684 0-3.048 1.33-3.048 2.971v0.002c0 1.641 1.365 2.971 3.048 2.971h0.002c1.684 0 3.048-1.33 3.048-2.971v-0.002c0-1.641-1.365-2.971-3.048-2.971z"></path>
<path d="M31.73 8.599c-0.005-2.279-0.936-4.463-2.589-6.074s-3.894-2.519-6.233-2.524v0c-2.339 0.004-4.581 0.911-6.235 2.523s-2.586 3.796-2.59 6.076v12.566c0 0 17.645-1.915 17.647-12.564v-0.002z"></path>
<path d="M-0 25.289c0.004 1.586 0.652 3.105 1.803 4.226s2.709 1.753 4.336 1.758c1.627-0.005 3.185-0.636 4.336-1.757s1.799-2.64 1.803-4.225v-8.744c0 0-12.278 1.334-12.278 8.742zM6.139 26.856c-0.318 0-0.629-0.092-0.893-0.264s-0.47-0.417-0.592-0.703-0.154-0.601-0.091-0.905c0.062-0.304 0.215-0.583 0.44-0.802s0.511-0.368 0.823-0.429c0.312-0.060 0.635-0.029 0.929 0.089s0.545 0.319 0.721 0.577c0.177 0.258 0.271 0.561 0.271 0.87 0.001 0.206-0.040 0.411-0.121 0.601s-0.199 0.364-0.348 0.51c-0.149 0.146-0.327 0.262-0.522 0.341s-0.405 0.12-0.617 0.12v-0.006z"></path>
<path d="M18.671 25.884h-1.256v1.297h-0.654v-3.174h2.067v0.53h-1.413v0.82h1.256v0.528zM21.815 25.666c0 0.312-0.055 0.587-0.166 0.822s-0.269 0.417-0.475 0.545c-0.205 0.128-0.44 0.192-0.706 0.192-0.263 0-0.498-0.063-0.704-0.19s-0.366-0.307-0.48-0.541c-0.113-0.235-0.171-0.506-0.172-0.811v-0.157c0-0.312 0.056-0.587 0.168-0.824 0.113-0.238 0.273-0.421 0.477-0.547 0.206-0.128 0.442-0.192 0.706-0.192s0.499 0.064 0.704 0.192c0.206 0.126 0.366 0.309 0.477 0.547 0.113 0.237 0.17 0.511 0.17 0.822v0.142zM21.152 25.522c0-0.333-0.060-0.586-0.179-0.759s-0.289-0.259-0.51-0.259c-0.219 0-0.389 0.086-0.508 0.257-0.119 0.17-0.18 0.42-0.181 0.75v0.155c0 0.324 0.060 0.576 0.179 0.754s0.291 0.268 0.515 0.268c0.219 0 0.388-0.086 0.506-0.257 0.118-0.173 0.177-0.424 0.179-0.754v-0.155zM23.936 26.348c0-0.124-0.044-0.218-0.131-0.283-0.087-0.067-0.244-0.137-0.471-0.209-0.227-0.074-0.406-0.147-0.538-0.218-0.36-0.195-0.541-0.457-0.541-0.787 0-0.172 0.048-0.324 0.144-0.458 0.097-0.135 0.236-0.241 0.416-0.316 0.182-0.076 0.385-0.113 0.611-0.113 0.227 0 0.429 0.041 0.606 0.124 0.177 0.081 0.315 0.197 0.412 0.347 0.099 0.15 0.148 0.32 0.148 0.51h-0.654c0-0.145-0.046-0.258-0.137-0.338-0.092-0.081-0.22-0.122-0.386-0.122-0.16 0-0.284 0.034-0.373 0.102-0.089 0.067-0.133 0.156-0.133 0.266 0 0.103 0.052 0.19 0.155 0.259 0.105 0.070 0.258 0.135 0.46 0.196 0.372 0.112 0.643 0.251 0.813 0.416s0.255 0.372 0.255 0.619c0 0.275-0.104 0.491-0.312 0.648-0.208 0.156-0.488 0.233-0.839 0.233-0.244 0-0.467-0.044-0.667-0.133-0.201-0.090-0.354-0.213-0.46-0.368-0.105-0.156-0.157-0.336-0.157-0.541h0.656c0 0.35 0.209 0.525 0.628 0.525 0.156 0 0.277-0.031 0.364-0.094 0.087-0.064 0.131-0.153 0.131-0.266zM27.427 24.536h-0.972v2.645h-0.654v-2.645h-0.959v-0.53h2.586v0.53zM29.712 25.805h-1.256v0.85h1.474v0.525h-2.128v-3.174h2.124v0.53h-1.47v0.757h1.256v0.512zM31.489 26.019h-0.521v1.162h-0.654v-3.174h1.18c0.375 0 0.664 0.084 0.868 0.251s0.305 0.403 0.305 0.709c0 0.217-0.047 0.397-0.142 0.543-0.093 0.144-0.235 0.259-0.425 0.344l0.687 1.297v0.030h-0.702l-0.595-1.162zM30.967 25.489h0.528c0.164 0 0.291-0.041 0.382-0.124 0.090-0.084 0.135-0.2 0.135-0.347 0-0.15-0.043-0.267-0.129-0.353-0.084-0.086-0.214-0.129-0.39-0.129h-0.525v0.953zM34.931 26.063v1.118h-0.654v-3.174h1.238c0.238 0 0.448 0.044 0.628 0.131 0.182 0.087 0.321 0.212 0.419 0.373 0.097 0.16 0.146 0.342 0.146 0.547 0 0.311-0.107 0.557-0.32 0.737-0.212 0.179-0.507 0.268-0.883 0.268h-0.573zM34.931 25.533h0.584c0.173 0 0.305-0.041 0.395-0.122 0.092-0.081 0.137-0.198 0.137-0.349 0-0.156-0.046-0.281-0.137-0.377s-0.218-0.145-0.379-0.148h-0.6v0.996zM39.069 25.805h-1.256v0.85h1.474v0.525h-2.128v-3.174h2.124v0.53h-1.469v0.757h1.256v0.512zM42.104 24.536h-0.972v2.645h-0.654v-2.645h-0.959v-0.53h2.586v0.53zM44.389 25.805h-1.256v0.85h1.474v0.525h-2.128v-3.174h2.124v0.53h-1.469v0.757h1.256v0.512zM46.166 26.019h-0.521v1.162h-0.654v-3.174h1.18c0.375 0 0.664 0.084 0.868 0.251s0.305 0.403 0.305 0.709c0 0.217-0.047 0.397-0.142 0.543-0.093 0.144-0.235 0.259-0.425 0.344l0.687 1.297v0.030h-0.702l-0.595-1.162zM45.645 25.489h0.528c0.164 0 0.291-0.041 0.382-0.124 0.090-0.084 0.135-0.2 0.135-0.347 0-0.15-0.043-0.267-0.129-0.353-0.084-0.086-0.214-0.129-0.39-0.129h-0.525v0.953zM49.489 26.348c0-0.124-0.044-0.218-0.131-0.283-0.087-0.067-0.244-0.137-0.471-0.209-0.227-0.074-0.406-0.147-0.539-0.218-0.36-0.195-0.541-0.457-0.541-0.787 0-0.172 0.048-0.324 0.144-0.458 0.097-0.135 0.236-0.241 0.416-0.316 0.182-0.076 0.385-0.113 0.61-0.113 0.227 0 0.429 0.041 0.606 0.124 0.177 0.081 0.315 0.197 0.412 0.347 0.099 0.15 0.148 0.32 0.148 0.51h-0.654c0-0.145-0.046-0.258-0.137-0.338-0.092-0.081-0.22-0.122-0.386-0.122-0.16 0-0.284 0.034-0.373 0.102-0.089 0.067-0.133 0.156-0.133 0.266 0 0.103 0.052 0.19 0.155 0.259 0.105 0.070 0.258 0.135 0.46 0.196 0.372 0.112 0.643 0.251 0.813 0.416s0.255 0.372 0.255 0.619c0 0.275-0.104 0.491-0.312 0.648-0.208 0.156-0.488 0.233-0.839 0.233-0.244 0-0.467-0.044-0.667-0.133-0.201-0.090-0.354-0.213-0.46-0.368-0.105-0.156-0.157-0.336-0.157-0.541h0.656c0 0.35 0.209 0.525 0.628 0.525 0.156 0 0.277-0.031 0.364-0.094 0.087-0.064 0.131-0.153 0.131-0.266z"></path>
</symbol>
<symbol id="icon-in" viewBox="0 0 32 32">
<path d="M31.992 32h0.008v-11.738c0-5.741-1.235-10.163-7.947-10.163-3.227 0-5.392 1.77-6.277 3.45h-0.093v-2.914h-6.365v21.363h6.627v-10.578c0-2.786 0.528-5.48 3.978-5.48 3.398 0 3.45 3.179 3.45 5.658v10.402h6.619zM0.528 10.635h6.635v21.365h-6.635v-21.365zM3.843 0c-2.123 0-3.843 1.721-3.843 3.843v0c0 2.12 1.722 3.878 3.843 3.878 2.12 0 3.842-1.757 3.842-3.878s-1.72-3.841-3.841-3.843h-0z"></path>
</symbol>
<symbol id="icon-instagram" viewBox="0 0 32 32">
<path d="M31.968 9.408c-0.074-1.701-0.349-2.869-0.742-3.882-0.424-1.111-1.054-2.059-1.85-2.837l-0.001-0.001c-0.78-0.792-1.724-1.419-2.778-1.827l-0.054-0.018c-1.019-0.394-2.181-0.667-3.882-0.742-1.712-0.082-2.256-0.101-6.602-0.101-4.344 0-4.888 0.019-6.595 0.094-1.699 0.074-2.869 0.349-3.88 0.742-1.112 0.424-2.060 1.054-2.839 1.85l-0.001 0.001c-0.791 0.78-1.418 1.724-1.825 2.778l-0.018 0.054c-0.395 1.019-0.669 2.181-0.744 3.882-0.082 1.712-0.101 2.256-0.101 6.602 0 4.344 0.019 4.888 0.094 6.595 0.075 1.701 0.35 2.869 0.744 3.882 0.426 1.11 1.055 2.057 1.849 2.837l0.001 0.001c0.8 0.813 1.77 1.443 2.832 1.843 1.019 0.395 2.182 0.67 3.882 0.744 1.707 0.075 2.251 0.094 6.595 0.094 4.346 0 4.89-0.019 6.595-0.094 1.701-0.074 2.869-0.349 3.882-0.742 2.157-0.85 3.833-2.526 4.664-4.628l0.019-0.055c0.394-1.019 0.669-2.182 0.744-3.882 0.075-1.707 0.093-2.251 0.093-6.595s-0.006-4.888-0.080-6.595zM29.088 22.474c-0.070 1.563-0.333 2.406-0.55 2.97-0.552 1.399-1.64 2.486-3.004 3.024l-0.036 0.012c-0.56 0.219-1.411 0.482-2.968 0.55-1.688 0.075-2.194 0.094-6.464 0.094-4.269 0-4.782-0.019-6.464-0.094-1.563-0.069-2.406-0.331-2.97-0.55-0.721-0.269-1.334-0.676-1.836-1.192l-0.001-0.001c-0.517-0.503-0.924-1.117-1.184-1.803l-0.011-0.034c-0.218-0.563-0.48-1.413-0.549-2.97-0.075-1.688-0.094-2.195-0.094-6.464 0-4.27 0.019-4.784 0.094-6.464 0.069-1.563 0.331-2.406 0.549-2.97 0.269-0.722 0.678-1.337 1.198-1.837l0.002-0.002c0.504-0.517 1.119-0.923 1.806-1.182l0.034-0.011c0.56-0.219 1.411-0.48 2.968-0.55 1.688-0.074 2.195-0.093 6.464-0.093 4.275 0 4.782 0.019 6.464 0.093 1.563 0.069 2.406 0.331 2.97 0.55 0.693 0.256 1.325 0.662 1.837 1.194 0.531 0.52 0.938 1.144 1.195 1.84 0.218 0.56 0.48 1.411 0.549 2.968 0.075 1.688 0.094 2.194 0.094 6.464 0 4.269-0.019 4.768-0.094 6.458z"></path>
<path d="M16.059 7.782c-4.539 0.002-8.218 3.682-8.219 8.221v0c0 0 0 0.001 0 0.002 0 4.541 3.681 8.222 8.222 8.222s8.222-3.681 8.222-8.222c0-4.541-3.681-8.222-8.222-8.222-0.001 0-0.001 0-0.002 0h0zM16.059 21.334c-2.945-0-5.332-2.388-5.332-5.333s2.388-5.333 5.333-5.333c0 0 0.001 0 0.001 0h-0c2.946 0 5.334 2.388 5.334 5.334s-2.388 5.334-5.334 5.334v0zM26.525 7.458c0 1.060-0.86 1.92-1.92 1.92s-1.92-0.86-1.92-1.92v0c0-1.060 0.86-1.92 1.92-1.92s1.92 0.86 1.92 1.92v0z"></path>
</symbol>
<symbol id="icon-tel" viewBox="0 0 20 32">
<path d="M17 0h-14c-1.654 0-3 1.346-3 3v26c0 1.654 1.346 3 3 3h14c1.654 0 3-1.346 3-3v-26c0-1.654-1.346-3-3-3zM3 2h14c0.552 0 1 0.448 1 1v0 21h-16v-21c0-0.552 0.448-1 1-1v0zM17 30h-14c-0.552 0-1-0.448-1-1v0-3h16v3c0 0.552-0.448 1-1 1v0z"></path>
</symbol>
<symbol id="icon-tviter" viewBox="0 0 36 32">
<path d="M35.556 4.976c-1.222 0.548-2.64 0.952-4.125 1.142l-0.076 0.008c1.511-0.907 2.646-2.309 3.193-3.977l0.015-0.051c-1.331 0.803-2.879 1.415-4.529 1.748l-0.093 0.016c-1.333-1.421-3.223-2.306-5.319-2.306-4.025 0-7.287 3.263-7.287 7.287 0 0.001 0 0.003 0 0.004v-0c0 0.578 0.048 1.134 0.169 1.662-6.060-0.295-11.422-3.2-15.024-7.623-0.627 1.055-0.999 2.324-1.003 3.681v0.001c0 2.524 1.301 4.763 3.237 6.059-1.212-0.033-2.341-0.361-3.327-0.915l0.036 0.019v0.080c0.005 3.515 2.486 6.449 5.792 7.152l0.048 0.009c-0.556 0.153-1.195 0.24-1.854 0.24-0.020 0-0.040-0-0.061-0l0.003 0c-0.466 0-0.937-0.027-1.38-0.124 0.944 2.887 3.623 5.010 6.811 5.077-2.461 1.94-5.606 3.111-9.025 3.111-0.005 0-0.009 0-0.014 0h0.001c-0.020 0-0.045 0-0.069 0-0.59 0-1.172-0.038-1.743-0.11l0.068 0.007c3.14 2.051 6.986 3.271 11.116 3.271 0.023 0 0.047-0 0.070-0h-0.004c13.413 0 20.747-11.111 20.747-20.743 0-0.32-0.011-0.633-0.027-0.942 1.443-1.040 2.656-2.293 3.62-3.727l0.033-0.052z"></path>
</symbol>
<symbol id="icon-yaco" viewBox="0 0 29 32">
<path d="M3.84 0l4.677 4.428h13.046v12.351l4.677 4.428v-21.206h-22.4z"></path>
<path d="M0 4.241v20.6h21.76v-8.188l-13.105-12.407-8.655-0.005zM17.615 21.828h-14.172v-13.855h1.002v12.917h13.17v0.938zM6.266 28.662l0.524-1.078h0.438l-0.764 1.437v0.838h-0.397v-0.838l-0.764-1.437h0.439l0.524 1.078zM8.513 29.329h-0.881l-0.184 0.53h-0.411l0.859-2.275h0.355l0.861 2.275h-0.413l-0.186-0.53zM7.743 29.010h0.659l-0.33-0.944-0.33 0.944zM10.071 29.244c0-0.105 0.029-0.202 0.086-0.289 0.058-0.089 0.17-0.193 0.339-0.314-0.069-0.083-0.131-0.176-0.182-0.276l-0.004-0.008c-0.031-0.066-0.050-0.144-0.052-0.226v-0c0-0.179 0.054-0.319 0.163-0.422s0.254-0.156 0.437-0.156c0.166 0 0.301 0.049 0.406 0.147 0.106 0.097 0.16 0.218 0.16 0.361 0 0.001 0 0.002 0 0.003 0 0.096-0.027 0.186-0.074 0.262l0.001-0.002c-0.063 0.095-0.142 0.174-0.233 0.236l-0.003 0.002-0.155 0.113 0.44 0.518c0.063-0.125 0.095-0.264 0.095-0.417h0.33c0 0.28-0.065 0.509-0.196 0.689l0.334 0.396h-0.44l-0.128-0.152c-0.154 0.115-0.348 0.183-0.558 0.183-0.008 0-0.017-0-0.025-0l0.001 0c-0.225 0-0.405-0.060-0.54-0.179-0.124-0.11-0.202-0.27-0.202-0.447 0-0.007 0-0.014 0-0.021l-0 0.001zM10.824 29.587c0.128 0 0.248-0.043 0.359-0.128l-0.497-0.586-0.049 0.035c-0.125 0.095-0.188 0.203-0.188 0.325 0 0.105 0.034 0.191 0.102 0.256 0.066 0.061 0.156 0.099 0.254 0.099 0.006 0 0.013-0 0.019-0l-0.001 0zM10.614 28.121c0 0.088 0.054 0.197 0.161 0.33l0.173-0.118 0.049-0.039c0.059-0.052 0.097-0.128 0.097-0.212 0-0.003-0-0.006-0-0.009v0c0-0.001 0-0.001 0-0.002 0-0.059-0.026-0.112-0.067-0.149l-0-0c-0.042-0.040-0.099-0.064-0.162-0.064-0.003 0-0.006 0-0.009 0h0c-0.003-0-0.006-0-0.010-0-0.066 0-0.126 0.029-0.167 0.075l-0 0c-0.041 0.048-0.066 0.111-0.066 0.179 0 0.003 0 0.007 0 0.010v-0zM14.748 29.118c-0.023 0.243-0.113 0.432-0.269 0.568s-0.364 0.204-0.623 0.204c-0.181 0-0.341-0.043-0.48-0.128-0.139-0.089-0.248-0.214-0.317-0.362l-0.002-0.005c-0.074-0.16-0.117-0.347-0.117-0.544 0-0.003 0-0.005 0-0.008v0-0.212c0-0.214 0.038-0.403 0.114-0.567 0.077-0.164 0.186-0.29 0.326-0.378 0.143-0.089 0.307-0.133 0.494-0.133 0.251 0 0.453 0.068 0.606 0.205s0.243 0.329 0.268 0.578h-0.394c-0.019-0.163-0.067-0.281-0.144-0.353-0.076-0.073-0.188-0.109-0.336-0.109-0.172 0-0.304 0.063-0.397 0.189-0.092 0.125-0.138 0.309-0.141 0.552v0.202c0 0.246 0.044 0.433 0.132 0.563s0.218 0.194 0.387 0.194c0.155 0 0.272-0.035 0.35-0.105s0.128-0.186 0.148-0.348h0.394zM16.918 28.78c0 0.223-0.038 0.419-0.115 0.588-0.077 0.168-0.188 0.297-0.332 0.388-0.143 0.090-0.307 0.134-0.494 0.134-0.184 0-0.349-0.045-0.493-0.134-0.146-0.094-0.261-0.225-0.332-0.38l-0.002-0.006c-0.075-0.163-0.119-0.354-0.119-0.555 0-0.008 0-0.015 0-0.023v0.001-0.128c0-0.222 0.038-0.418 0.117-0.588s0.19-0.3 0.333-0.389c0.144-0.091 0.308-0.136 0.493-0.136s0.35 0.045 0.493 0.134c0.143 0.089 0.255 0.217 0.333 0.384s0.118 0.362 0.118 0.584v0.126zM16.522 28.662c0-0.252-0.048-0.445-0.143-0.58-0.085-0.123-0.225-0.202-0.384-0.202-0.007 0-0.015 0-0.022 0.001l0.001-0c-0.005-0-0.011-0-0.016-0-0.159 0-0.299 0.079-0.384 0.2l-0.001 0.002c-0.096 0.133-0.145 0.323-0.147 0.567v0.131c0 0.25 0.049 0.444 0.146 0.58s0.233 0.205 0.406 0.205c0.175 0 0.31-0.067 0.403-0.2 0.095-0.133 0.142-0.328 0.142-0.584v-0.118z"></path>
</symbol>
</defs>
</svg>
